<svg xmlns="http://www.w3.org/2000/svg" xmlns:xlink="http://www.w3.org/1999/xlink" 
 viewBox="0 0 108 42" enable-background="new 0 0 108 42" xml:space="preserve">
<path fill="#1286C8" d="M3.729,41.861h34.269c2.057,0,3.727-1.668,3.727-3.729V3.867c0-2.057-1.67-3.729-3.727-3.729H3.729
	C1.67,0.138,0,1.81,0,3.867v34.266C0,40.193,1.67,41.861,3.729,41.861z"/>
<path fill="#E84E2B" d="M52.616,35.936c0,0.656-0.188,0.939-0.845,0.939h-2.86c-0.614,0-0.849-0.283-0.849-0.939V5.891
	c0-0.657,0.235-0.939,0.849-0.939h2.86c0.657,0,0.845,0.282,0.845,0.939V35.936"/>
<path fill="#E84E2B" d="M83.6,35.984c0,0.607-0.231,0.891-0.842,0.891h-2.773c-0.606,0-0.845-0.283-0.845-0.891V14.436
	c-0.093,0.235-0.703,2.393-1.129,3.473l-5.445,13.193c-0.233,0.609-0.607,0.936-1.167,0.936h-2.445c-0.61,0-0.892-0.371-1.126-0.936
	l-5.823-13.755c-0.472-1.033-0.842-2.676-0.891-2.817v21.455c0,0.607-0.238,0.891-0.842,0.891h-2.633
	c-0.611,0-0.845-0.283-0.845-0.891V5.842c0-0.608,0.233-0.89,0.845-0.89h2.633c0.417,0,0.652,0.186,0.796,0.515l8.124,18.873
	c0.325,0.801,0.936,2.629,0.982,2.818c0.047-0.189,0.701-1.971,1.036-2.77l7.975-19.014c0.141-0.33,0.378-0.422,0.8-0.422h2.773
	c0.61,0,0.842,0.282,0.842,0.89V35.984"/>
<path fill="#E84E2B" d="M107.075,20.911c0.61,0,0.893,0.238,0.893,0.85v8.26c0,3.85-2.301,7.23-10.379,7.23
	c-8.075,0-10.373-3.381-10.373-7.23V11.803c0-3.85,2.298-7.229,10.373-7.229c8.078,0,10.379,3.379,10.379,7.229v2.069
	c0,0.61-0.238,0.889-0.849,0.889h-2.72c-0.655,0-0.894-0.278-0.894-0.889v-1.314c0-2.535-1.646-4.086-5.867-4.086
	c-4.226,0-5.826,1.551-5.826,4.086V29.27c0,2.535,1.601,4.086,5.826,4.086c4.172,0,5.867-1.506,5.867-4.039v-4.506h-5.589
	c-0.606,0-0.889-0.232-0.889-0.895v-2.155c0-0.612,0.282-0.85,0.889-0.85H107.075"/>
<path fill="#FFFFFF" d="M9.494,36.203c0,0.449-0.366,0.814-0.815,0.814h-1.63c-0.449,0-0.815-0.365-0.818-0.811c0,0,0,0,0-0.004
	c-0.006-3.873,1.489-7.209,4.551-10.195c2.579-2.516,5.973-4.498,9.252-6.418c6.271-3.666,12.194-7.133,12.201-13.794
	c0.007-0.442,0.374-0.81,0.813-0.81h1.636c0.443,0,0.812,0.368,0.812,0.815c-0.005,3.87-1.497,7.205-4.565,10.189
	c-2.581,2.514-5.973,4.497-9.25,6.418C15.406,26.072,9.487,29.535,9.494,36.203z M16.868,20.527l3.188-1.883
	C14.425,15.304,9.487,11.887,9.494,5.8c0-0.447-0.366-0.815-0.815-0.815h-1.63c-0.449,0-0.815,0.366-0.818,0.81c0,0,0,0,0,0.005
	c-0.006,3.875,1.489,7.208,4.551,10.195C12.534,17.702,14.658,19.167,16.868,20.527z M15.513,10.784c-0.448,0-0.82,0.369-0.82,0.815
	v1.631c0,0.449,0.373,0.815,0.82,0.815h10.706c0.444,0,0.815-0.366,0.815-0.815v-1.631c0-0.446-0.371-0.815-0.815-0.815H15.513z
	 M11.925,9.121h17.88c0.45,0,0.812-0.364,0.812-0.813V6.674c0-0.447-0.362-0.813-0.812-0.813h-17.88
	c-0.449,0-0.816,0.366-0.816,0.813v1.633C11.108,8.756,11.476,9.121,11.925,9.121z M24.899,21.517l-3.248,1.849
	c5.636,3.34,10.579,6.754,10.583,12.842c0.007,0.445,0.374,0.811,0.813,0.811h1.636c0.443,0,0.812-0.365,0.812-0.814
	C35.491,32.332,33.999,29,30.931,26.01C29.193,24.32,27.089,22.869,24.899,21.517z M14.693,30.084c0,0.447,0.373,0.814,0.82,0.814
	h10.706c0.444,0,0.815-0.367,0.815-0.814v-1.633c0-0.449-0.371-0.813-0.815-0.813H15.513c-0.448,0-0.82,0.363-0.82,0.813V30.084z
	 M29.805,32.561h-17.88c-0.449,0-0.816,0.365-0.816,0.814v1.633c0,0.449,0.367,0.816,0.816,0.816h17.88
	c0.45,0,0.812-0.367,0.812-0.816v-1.633C30.617,32.926,30.255,32.561,29.805,32.561z"/>
</svg>
